<?xml version="1.0" encoding="UTF-8" standalone="no"?><!DOCTYPE svg PUBLIC "-//W3C//DTD SVG 1.1//EN" "http://www.w3.org/Graphics/SVG/1.1/DTD/svg11.dtd"><svg width="100%" height="100%" viewBox="0 0 2790 993" version="1.1" xmlns="http://www.w3.org/2000/svg" xmlns:xlink="http://www.w3.org/1999/xlink" xml:space="preserve" xmlns:serif="http://www.serif.com/" style="fill-rule:evenodd;clip-rule:evenodd;stroke-linejoin:round;stroke-miterlimit:2;"><g><g><path d="M2677.518,717.288c-16.828,-154.47 -129.427,-288.774 -291.93,-291.93l0,291.93l291.93,0Zm-398.797,0c-12.252,-155.034 -130.893,-290.393 -291.93,-291.93l0,291.93l291.93,0Zm0,-260.653l0,-138.145c71.32,-2.318 142.582,1.819 211.119,22.161c208.494,61.889 291.684,242.761 297.177,448.288c0.218,8.065 6.442,18.394 0.218,26.352l-904.708,1.045l0,-497.846c145.935,-7.829 295.84,26.741 396.194,138.145" style="fill:#005293;fill-rule:nonzero;"/><path d="M1462.878,318.49l0,277.595c0,58.564 59.806,121.202 118.598,121.202l155.087,0l0,-297.142l106.867,0l0,394.888l-8.992,4.041c-93.398,-4.755 -194.237,8.165 -286.437,-5.757c-126.692,-19.133 -186.355,-119.943 -192.097,-240.585c-3.981,-83.575 3.192,-170.357 0.107,-254.243l106.867,0Z" style="fill:#005293;fill-rule:nonzero;"/></g><path d="M1183.619,352.72l-4.879,70.035c-49.658,-20.663 -157.688,-41.572 -151.246,43.12c2.112,27.779 24.8,41.939 46.216,55.415c58.978,37.12 125.793,52.733 133.394,135.081c14.599,158.159 -141.969,186.932 -261.384,142.015l3.699,-78.493c43.22,29.016 143.41,51.987 165.414,-13.108c26.209,-77.544 -70.428,-97.939 -118.345,-131.732c-30.864,-21.769 -53.903,-55.233 -57.48,-93.698c-13.09,-140.877 139.525,-169.009 244.612,-128.636" style="fill-rule:nonzero;"/><path d="M321.244,355.012l-5.25,75.55c-18.919,-4.612 -34.666,-15.826 -54.195,-20.071c-147.308,-32.013 -188.612,122.536 -158.212,236.409c27.051,101.31 126.945,123.392 212.393,75.603l5.265,78.161c-74.194,24.629 -166.402,25.014 -231.772,-22.357c-102.362,-74.177 -110.987,-263.267 -41.454,-361.591c62.641,-88.583 177.698,-96.177 273.226,-61.703" style="fill-rule:nonzero;"/><path d="M876.397,430.56c-24.658,-7.79 -47.111,-21.248 -74.18,-23.545c-128.364,-10.893 -161.797,116.194 -144.087,219.68c19.033,111.229 119.283,150.376 214.372,95.856c6.253,0.036 3.521,31.21 3.934,37.716c0.813,12.784 5.703,27.048 1.388,40.537c-100.489,34.449 -220.754,18.533 -278.801,-78.514c-52.408,-87.62 -48.92,-238.331 18.006,-317.819c64.214,-76.26 171.987,-83.08 260.795,-49.601l-1.427,75.689Z" style="fill-rule:nonzero;"/><path d="M482.824,341.948l0,465.266l-3.909,3.909l-82.106,0l0,-469.175l86.015,0Z" style="fill-rule:nonzero;"/><path d="M2174.458,193.376c26.295,2.714 57.951,-1.691 57.102,-34.937c-0.838,-32.758 -31.071,-35.483 -57.102,-32.833l0,67.771Zm0,-99.048c19.678,-0.378 40.263,5.297 49.266,-17.203c14.696,-36.724 -18.555,-49.209 -49.266,-45.353l0,62.556Zm45.613,-91.226c38.643,5.172 54.106,39.025 43.584,74.858c-5.247,17.863 -18.719,21.908 -31.849,31.977c51.202,9.431 52.108,85.434 8.414,106.196c-3.046,1.445 -23.745,8.521 -25.36,8.521l-79.498,0l0,-221.553c26.477,2.547 59.021,-3.442 84.71,0" style="fill-rule:nonzero;"/><path d="M1228.29,34.378l0,155.087c8.004,7.48 26.719,3.56 37.056,0.567c36.329,-10.526 45.585,-50.496 43.858,-84.1c-2.529,-49.233 -30.236,-77.633 -80.914,-71.555m-39.096,190.275l0,-221.553l79.498,0c6.67,0 31.792,9.559 38.643,13.486c76.281,43.737 52.686,208.066 -46.466,208.066l-71.676,0Z" style="fill-rule:nonzero;"/><path d="M2715.737,184.679c23.295,-23.295 21.861,-101.866 8,-130.055c-12.106,-24.619 -43.337,-32.662 -62.912,-12.174c-23.334,24.429 -22.336,95.328 -10.661,124.84c10.854,27.443 42.777,40.184 65.573,17.388m-44.054,-183.505c134.524,-19.653 135.042,213.805 27.715,225.801c-126.435,14.132 -129.256,-210.97 -27.715,-225.801" style="fill-rule:nonzero;"/><path d="M1804.332,34.378l0,65.163c29.897,1.484 53.678,-3.178 52.255,-37.884c-1.284,-31.356 -27.861,-27.233 -52.255,-27.279m45.613,-31.278c48.656,6.513 65.877,68.512 29.805,100.179l-23.27,11.871c9.345,-0.239 15.391,8.036 20.181,15.02l31.931,94.483l-40.398,0c-19.921,-31.72 -10.843,-101.909 -63.861,-96.441l0,96.441l-39.096,0l0,-221.553c26.477,2.547 59.017,-3.438 84.71,0" style="fill-rule:nonzero;"/><path d="M250.844,99.541c24.672,3.249 53.881,-2.572 54.848,-32.658c1.17,-36.286 -27.326,-33.675 -54.848,-32.505l0,65.163Zm40.402,-96.441c52.943,6.278 72.811,63.323 35.012,100.176l-23.263,11.871c8.796,1.166 15.805,7.605 20.171,15.031c13.725,23.356 20.449,65.955 31.938,91.872l-41.704,0c-4.152,-15.148 -7.961,-30.771 -12.98,-45.667c-9.306,-27.611 -12.063,-53.546 -49.576,-48.171l0,93.837l-39.096,0l0,-218.949c25.196,2.158 54.883,-2.918 79.498,0" style="fill-rule:nonzero;"/><path d="M821.13,29.698c-17.549,1.48 -30.632,16.037 -36.432,31.567c-11.421,30.6 -13.757,122.918 26.47,133.49c62.484,16.425 64.197,-77.258 56.763,-116.708c-4.462,-23.673 -18.434,-50.742 -46.801,-48.349m-7.861,-28.467c121.256,-13.137 127.648,196.545 34.581,222.234c-132.83,36.664 -149.495,-209.782 -34.581,-222.234" style="fill-rule:nonzero;"/><path d="M159.616,8.313l0,36.493c-71.355,-36.671 -123.485,4.812 -117.389,82.199c3.806,48.303 40.013,84.039 88.719,62.463l0,-58.646l-33.9,0.014l0.014,-28.688l70.374,0l0,114.689c-77.233,26.562 -160.017,0.614 -166.912,-89.832c-7.555,-99.13 67.845,-147.108 159.093,-118.691" style="fill-rule:nonzero;"/><path d="M425.481,3.1l0,162.906c0,3.403 9.306,20.538 13.09,23.402c11.96,9.06 36.625,8.867 46.951,-2.458c2.668,-2.928 10.337,-23.206 10.337,-26.156l0,-157.695l39.096,0l0,157.695c0,3.695 -7.637,27.376 -9.898,31.806c-23.584,46.269 -106.271,45.481 -129.649,-1.733c-1.965,-3.977 -9.024,-22.054 -9.024,-24.861l0,-162.906l39.096,0Z" style="fill-rule:nonzero;"/><path d="M2044.132,138.639l-27.369,-101.681l-29.976,101.681l57.345,0Zm65.163,86.015l-41.704,0l-15.534,-53.539l-74.105,-1.363l-18.533,54.901l-37.795,0c10.051,-24.729 65.145,-220.318 76.791,-221.745c6.734,-0.828 38.808,-0.881 41.85,2.754l69.03,218.992Z" style="fill-rule:nonzero;"/><path d="M2349.096,138.639l57.345,0l-27.397,-99.063l-29.947,99.063Zm-65.163,86.015l71.641,-218.988l41.847,-2.746l74.184,221.734l-41.704,0l-16.005,-54.373l-75.514,1.188l-15.352,53.186l-39.096,0Z" style="fill-rule:nonzero;"/><path d="M1507.188,3.1l0,31.278l-75.589,0l0,59.952l70.374,0l0,31.278l-70.374,0l0,65.163l78.196,0l0,33.885l-119.9,0l0,-221.556l117.293,0Z" style="fill-rule:nonzero;"/><path d="M618.364,34.378l0,72.982c33.932,2.964 55.55,-5.678 52.251,-43.148c-2.814,-31.938 -26.049,-31.577 -52.251,-29.833m35.187,-31.278c50.81,5.996 70.406,60.719 48.766,103.489c-5.892,11.642 -27.993,29.445 -40.944,29.445l-43.009,0l0,86.015l-39.096,0l0,-218.949c23.566,2.008 51.256,-2.718 74.284,0" style="fill-rule:nonzero;"/><path d="M1056.247,39.581c-20.741,-6.809 -63.558,-18.419 -71.787,10.344c-11.039,38.597 59.531,47.839 76.623,77.373c11.004,19.011 9.524,47.596 -0.086,66.907c-16.104,32.376 -65.242,36.393 -96.648,29.83c-26.427,-5.522 -15.755,-19.375 -17.549,-41.073c21.865,11.517 70.096,24.815 79.58,-7.719c11.928,-40.933 -40.149,-47.347 -62.652,-67.885c-7.565,-6.902 -17.87,-22.667 -19.382,-32.747c-10.112,-67.449 57.922,-87.342 110.758,-66.447l1.141,31.417Z" style="fill-rule:nonzero;"/><path d="M1736.562,3.1l0,31.278l-49.522,0l0,190.278l-37.795,0l-3.913,-3.913l0,-186.365l-49.522,0l0,-31.278l140.752,0Z" style="fill-rule:nonzero;"/><path d="M2565.437,3.1l0,162.906c0,1.951 -3.46,18.573 -4.377,21.69c-10.658,36.354 -48.024,47.807 -81.303,34.007l-0.321,-33.529c1.523,-1.63 24.158,9.331 36.535,-3.863c1.327,-1.412 7.762,-12.331 7.762,-13.09l0,-168.121l41.704,0Z" style="fill-rule:nonzero;"/><path d="M1801.726,904.957l23.092,0.367l16.033,59.581c3.578,-0.321 4.198,-3.717 5.318,-6.381c4.437,-10.558 9.812,-45.182 14.139,-51.028c3.756,-5.079 18.426,-1.626 24.825,-2.54l0,82.106l-15.637,3.909l0,-67.771l-22.446,67.924l-11.175,-0.432l-21.116,-67.492l0,67.771l-13.033,0l0,-86.015Z" style="fill-rule:nonzero;"/><path d="M1541.073,904.957l20.499,0.353l26.42,62.203l0,-62.556l15.637,0l0,86.015l-19.579,-2.575l-27.336,-59.98l0,62.556l-15.641,0l0,-86.015Z" style="fill-rule:nonzero;"/><path d="M141.37,904.957l20.499,0.353l29.024,64.81l0,-65.163l13.033,0l0,86.015l-19.628,-2.529l-27.287,-60.027l0,62.556l-15.641,0l0,-86.015Z" style="fill-rule:nonzero;"/><path d="M2174.458,977.94c42.392,6.552 42.813,-67.589 0,-59.948l0,59.948Zm-15.641,13.033l0,-86.015c41.715,-3.164 67.357,3.528 62.684,50.96c-3.378,34.313 -34.424,37.017 -62.684,35.055" style="fill-rule:nonzero;"/><path d="M2323.03,977.94c42.207,6.955 41.7,-67.774 0,-59.948l0,59.948Zm-15.641,13.033l0,-86.015c37.466,-2.839 64.71,1.93 62.67,45.724c-1.819,38.943 -29.748,42.192 -62.67,40.291" style="fill-rule:nonzero;"/><path d="M477.611,977.94c39.571,7.523 40.109,-68.416 0,-59.948l0,59.948Zm-15.641,13.033l0,-86.015c33.949,-3.11 62.873,3.11 62.777,43.002c-0.096,38.297 -30.186,46.13 -62.777,43.013" style="fill-rule:nonzero;"/><path d="M1369.043,904.957l19.571,2.586l27.347,62.577l0,-65.163l13.03,0l0,86.015l-17.831,-0.428l-29.084,-64.735l0,65.163l-13.033,0l0,-86.015Z" style="fill-rule:nonzero;"/><path d="M667.888,904.957l17.834,0.428l29.084,64.735l0,-65.163l13.03,0l0,86.015l-17.831,-0.428l-29.084,-64.735l0,65.163l-13.033,0l0,-86.015Z" style="fill-rule:nonzero;"/><path d="M295.144,941.462c16.725,2.921 26.548,-6.199 18.416,-22.336l-18.416,-1.149l0,23.484Zm22.165,-36.503c19.008,4.116 19.985,36.753 1.316,42.991c10.743,11.739 13.611,28.31 18.223,43.006c-31.956,8.204 -12.27,-42.314 -41.693,-36.475l0,36.493l-15.641,-3.909l0,-82.106c11.082,1.598 27.611,-2.208 37.795,0" style="fill-rule:nonzero;"/><path d="M2501.061,977.136c27.536,20.913 38.693,-56.963 10.358,-61.329c-23.531,-3.62 -24.041,50.938 -10.358,61.329m8.742,-73.884c45.909,-1.309 49.408,93.798 -5.664,87.791c-38.476,-4.195 -38.576,-86.532 5.664,-87.791" style="fill-rule:nonzero;"/><path d="M1761.84,977.136c13.711,-10.412 12.973,-64.221 -10.847,-61.814c-26.484,2.679 -17.667,83.468 10.847,61.814m-10.533,-73.884c45.706,-1.32 45.538,81.778 9.873,87.563c-56.428,9.153 -55.055,-86.258 -9.873,-87.563" style="fill-rule:nonzero;"/><path d="M371.531,977.136c28.399,21.565 37.745,-59.096 10.847,-61.814c-23.82,-2.408 -24.558,51.402 -10.847,61.814m8.742,-73.884c45.909,-1.309 49.408,93.798 -5.664,87.791c-38.476,-4.195 -38.576,-86.532 5.664,-87.791" style="fill-rule:nonzero;"/><path d="M1329.201,918.781c-27.779,-23.295 -41.493,55.286 -10.583,61.225c23.21,-2.236 23.363,-50.507 10.583,-61.225m-10.579,-15.53c48.791,-1.391 47.971,101.652 -9.613,86.482c-33.34,-8.782 -33.218,-85.259 9.613,-86.482" style="fill-rule:nonzero;"/><path d="M1095.357,988.366c-23.324,6.303 -51.288,4.64 -61.218,-20.888c-8.832,-22.7 -2.607,-52.486 22.136,-61.186c13.665,-4.805 41.839,-7.02 36.461,14.292c-52.412,-26.295 -64.817,66.183 -10.401,57.366l0.004,-23.484l-13.062,0.029l0.004,-13.062l26.077,0.014l0,46.919Z" style="fill-rule:nonzero;"/><path d="M1152.692,957.074l-9.103,-36.464c-4.098,3.638 -13.126,35.134 -11.731,36.464l20.834,0Zm-0.26,-51.834l26.323,85.715l-15.263,-0.35l-5.835,-20.221l-29.434,-0.428l-7.166,20.649l-15.263,0.35l27.315,-83.433l19.322,-2.283Z" style="fill-rule:nonzero;"/><path d="M2270.904,957.076c0.539,-6.556 -1.887,-12.577 -3.364,-18.783c-1.07,-4.473 -3.096,-15.42 -7.034,-17.677l-10.447,36.457l20.845,0.004Zm-0.364,-51.752l26.42,85.637l-15.38,-0.253l-5.179,-19.036l-31.456,-1.434c-0.66,16.022 -3.167,23.716 -20.962,20.709l28.378,-84.446l18.18,-1.177Z" style="fill-rule:nonzero;"/><path d="M2700.966,957.071c-4.163,-11.357 -3.424,-28.613 -12.998,-36.475l-7.836,36.478l20.834,-0.004Zm-0.26,-51.83l26.323,85.715l-15.78,-1.134l-5.315,-19.439l-31.314,1.291l-5.179,19.033l-15.373,0.25l27.315,-83.433l19.322,-2.283Z" style="fill-rule:nonzero;"/><path d="M863.377,904.957l-0.307,8.814l-3.973,3.849l-27.012,0.357l0,20.88l28.699,-0.029l0.032,11.539l-27.579,3.949l-1.152,23.638l31.306,-0.029l-0.014,13.048l-46.919,0l0,-86.015l46.919,0Z" style="fill-rule:nonzero;"/><path d="M2064.984,904.957l0.014,13.048l-28.699,-0.029l0,20.88l24.408,0.353c18.576,21.373 -21.023,9.27 -24.408,12.652l0,26.092l31.303,-0.029l-0.011,13.048l-46.919,0l0,-86.015l44.311,0Z" style="fill-rule:nonzero;"/><path d="M1916.403,944.068c28.917,5.404 29.095,-31.424 0,-26.092l0,26.092Zm-15.63,-39.111c15.719,1.338 38.383,-5.604 48.021,10.626c14.053,23.663 -7.184,46.523 -32.394,41.493l0.029,33.91l-15.655,-0.014l0,-86.015Z" style="fill-rule:nonzero;"/><path d="M756.259,905.215l17.192,64.931l17.203,-64.921l15.373,-0.253l-27.718,85.63l-14.271,-1.191l-25.746,-83.183l17.966,-1.013Z" style="fill-rule:nonzero;"/><path d="M125.731,904.957l0.014,13.048l-28.731,1.484l0.032,19.368l26.124,1.491l-0.032,11.542l-26.092,-0.029l0,26.092l31.299,0l-3.916,13.019l-43.009,0l0,-86.015l44.311,0Z" style="fill-rule:nonzero;"/><path d="M584.479,904.957l0.014,13.048l-28.699,-0.029l-0.032,19.368l26.124,1.484l0,13.062l-26.092,-0.029l0,26.092l28.699,-0.029l-0.014,13.048l-44.311,0l0,-86.015l44.311,0Z" style="fill-rule:nonzero;"/><path d="M1525.434,904.957l0.014,13.048l-28.699,-0.029l-0.032,19.368l26.124,1.484l0,13.062l-26.092,-0.029l0,26.092l28.699,-0.029l-0.014,13.048l-44.311,0l0,-86.015l44.311,0Z" style="fill-rule:nonzero;"/><path d="M920.682,904.998l0.025,12.994c-1.487,1.53 -27.39,-8.528 -28.838,6.581c-1.495,15.63 34.92,15.965 33.907,41.422c-1.009,25.428 -27.779,29.477 -47.85,22.664l-1.502,-13.312l26.998,2.219l3.117,-2.058c8.575,-27.932 -30.358,-19.079 -30.368,-48.395c-0.011,-24.968 25.746,-24.968 44.511,-22.115" style="fill-rule:nonzero;"/><path d="M1205.654,924.013c-18.273,19.493 -0.499,68.395 33.118,52.472c11.856,17.827 -17.114,15.823 -28.874,13.326c-34.624,-7.348 -36.568,-70.032 -4.858,-83.329c10.23,-4.287 40.698,-6.848 36.214,10.119c-1.651,6.253 -13.479,-0.589 -20.392,0.471c-4.327,0.663 -12.27,3.806 -15.209,6.941" style="fill-rule:nonzero;"/><path d="M65.789,904.953l-0.025,15.634c-52.793,-23.416 -54.455,75.571 -0.004,54.755l-0.353,11.35c-2.244,7.037 -24.454,4.758 -30.982,3.057c-35.736,-9.313 -36.931,-84.121 12.224,-86.425c5.818,-0.271 12.741,2.914 19.14,1.63" style="fill-rule:nonzero;"/><path d="M2612.364,904.953l-0.036,15.644c-52.576,-23.716 -54.562,75.696 0.007,54.744l-0.353,11.35c-2.244,7.037 -24.454,4.758 -30.982,3.057c-36.111,-9.409 -35.911,-84.164 12.224,-86.425c5.818,-0.275 12.741,2.914 19.14,1.63" style="fill-rule:nonzero;"/><path d="M1707.873,920.587c-54.174,-23.381 -56.043,76.484 0,54.755l-1.124,13.187c-65.784,24.743 -78.371,-86.25 -16.233,-85.177c13.29,0.228 19.846,2.65 17.356,17.235" style="fill-rule:nonzero;"/><path d="M2458.533,904.997l0.021,12.98c-9.067,-0.885 -18.719,-5.999 -26.256,1.823c-13.112,19.614 44.482,20.788 29.498,57.477c-6.467,15.83 -28.118,15.601 -42.492,12.559l-2.422,-14.492c10.194,3.499 32.822,6.595 31.378,-8.999c-1.33,-14.399 -45.838,-18.812 -30.779,-49.062c7.562,-15.184 26.691,-14.592 41.051,-12.284" style="fill-rule:nonzero;"/><path d="M988.49,904.957l0.014,13.048l-18.259,-0.014l0,69.072c0,5.329 -18.248,5.329 -18.248,0l0,-69.072l-18.259,0.014l0.014,-13.048l54.737,0Z" style="fill-rule:nonzero;"/><path d="M269.09,904.957l0.014,13.048l-18.259,-0.014l0,72.982l-15.641,0l0,-72.982l-18.405,-1.149l-2.447,-11.885l54.737,0Z" style="fill-rule:nonzero;"/><path d="M1981.576,904.957l0,72.982l28.685,-0.014l-0.014,13.048l-44.311,0l0,-86.015l15.641,0Z" style="fill-rule:nonzero;"/><path d="M2753.107,904.957l0,72.982l26.077,-0.014l-0.011,13.048l-41.707,0l0,-86.015l15.641,0Z" style="fill-rule:nonzero;"/><path d="M2109.296,904.957l0,63.861c0,16.201 -18.84,26.42 -33.896,22.165l0.036,-15.648l11.378,2.472c2.393,-0.806 6.841,-9.919 6.841,-11.596l0,-61.254l15.641,0Z" style="fill-rule:nonzero;"/><rect x="2124.931" y="904.959" width="15.641" height="86.015"/><rect x="2627.992" y="904.959" width="15.641" height="86.015"/><rect x="634.001" y="904.959" width="15.641" height="86.015"/><rect x="998.913" y="904.959" width="15.641" height="86.015"/><rect x="1254.355" y="904.959" width="15.641" height="86.015"/><path d="M1332.551,884.132c-3.453,7.358 -8.389,16.889 -18.234,15.598c-0.285,-12.602 5.971,-17.688 18.234,-15.598" style="fill-rule:nonzero;"/></g></svg>