<?xml version="1.0" encoding="UTF-8"?>
<svg id="Capa_2" data-name="Capa 2" xmlns="http://www.w3.org/2000/svg" viewBox="0 0 782.2 278.15">
  <defs>
    <style>
      .cls-1 {
        fill: #005293;
      }

      .cls-2 {
        fill: #fff;
      }
    </style>
  </defs>
  <g id="Capa_1-2" data-name="Capa 1">
    <g>
      <path class="cls-1" d="M638.86,128.02v-38.73c20-.65,39.97.51,59.19,6.21,58.45,17.35,81.78,68.06,83.32,125.68.06,2.26,1.81,5.16.06,7.39l-253.64.29V89.29c40.91-2.2,82.94,7.5,111.08,38.73ZM638.86,201.1c-3.43-43.46-36.7-81.41-81.85-81.85v81.85h81.85ZM750.66,201.1c-4.72-43.31-36.29-80.96-81.85-81.85v81.85h81.85Z"/>
      <path class="cls-1" d="M410.13,89.29v77.83c0,16.42,16.77,33.98,33.25,33.98h43.48v-83.31h29.96v110.71l-2.52,1.13c-26.19-1.33-54.46,2.29-80.31-1.61-35.52-5.36-52.25-33.63-53.86-67.45-1.12-23.43.9-47.76.03-71.28h29.96Z"/>
      <path class="cls-2" d="M331.84,98.89l-1.37,19.64c-13.92-5.79-44.21-11.66-42.4,12.09.59,7.79,6.95,11.76,12.96,15.54,16.53,10.41,35.27,14.78,37.4,37.87,4.09,44.34-39.8,52.41-73.28,39.82l1.04-22.01c12.12,8.13,40.21,14.57,46.37-3.68,7.35-21.74-19.74-27.46-33.18-36.93-8.65-6.1-15.11-15.48-16.11-26.27-3.67-39.5,39.12-47.38,68.58-36.06Z"/>
      <path class="cls-2" d="M90.06,99.53l-1.47,21.18c-5.3-1.29-9.72-4.44-15.19-5.63-41.3-8.98-52.88,34.35-44.36,66.28,7.58,28.4,35.59,34.59,59.55,21.2l1.48,21.91c-20.8,6.9-46.65,7.01-64.98-6.27C-3.61,197.41-6.03,144.4,13.46,116.83c17.56-24.83,49.82-26.96,76.6-17.3Z"/>
      <path class="cls-2" d="M245.7,120.71c-6.91-2.18-13.21-5.96-20.8-6.6-35.99-3.05-45.36,32.58-40.4,61.59,5.34,31.18,33.44,42.16,60.1,26.87,1.75.01.99,8.75,1.1,10.57.23,3.58,1.6,7.58.39,11.36-28.17,9.66-61.89,5.2-78.16-22.01-14.69-24.57-13.71-66.82,5.05-89.1,18-21.38,48.22-23.29,73.12-13.91l-.4,21.22Z"/>
      <polygon class="cls-2" points="135.36 95.87 135.36 226.31 134.27 227.4 111.25 227.4 111.25 95.87 135.36 95.87"/>
      <g>
        <path class="cls-2" d="M622.41.87c10.83,1.45,15.17,10.94,12.22,20.99-1.47,5.01-5.25,6.14-8.93,8.96,14.35,2.64,14.61,23.95,2.36,29.77-.85.41-6.66,2.39-7.11,2.39h-22.29V.87c7.42.71,16.55-.96,23.75,0ZM609.63,26.45c5.52-.11,11.29,1.49,13.81-4.82,4.12-10.3-5.2-13.8-13.81-12.72v17.54ZM609.63,54.21c7.37.76,16.25-.47,16.01-9.8s-8.71-9.95-16.01-9.2v19Z"/>
        <path class="cls-2" d="M333.4,62.98V.87h22.29c1.87,0,8.91,2.68,10.83,3.78,21.39,12.26,14.77,58.33-13.03,58.33h-20.1ZM344.36,9.64v43.48c2.24,2.1,7.49,1,10.39.16,10.18-2.95,12.78-14.16,12.3-23.58-.71-13.8-8.48-21.77-22.69-20.06Z"/>
        <path class="cls-2" d="M749.03.33c37.71-5.51,37.86,59.94,7.77,63.31-35.45,3.96-36.24-59.15-7.77-63.31ZM761.38,51.78c6.53-6.53,6.13-28.56,2.24-36.46-3.39-6.9-12.15-9.16-17.64-3.41-6.54,6.85-6.26,26.73-2.99,35,3.04,7.69,11.99,11.27,18.38,4.87Z"/>
        <path class="cls-2" d="M518.65.87c13.64,1.83,18.47,19.21,8.36,28.09l-6.52,3.33c2.62-.07,4.32,2.25,5.66,4.21l8.95,26.49h-11.33c-5.58-8.89-3.04-28.57-17.9-27.04v27.04h-10.96V.87c7.42.71,16.55-.96,23.75,0ZM505.86,9.64v18.27c8.38.42,15.05-.89,14.65-10.62-.36-8.79-7.81-7.63-14.65-7.65Z"/>
        <path class="cls-2" d="M81.65.87c14.84,1.76,20.41,17.75,9.82,28.09l-6.52,3.33c2.47.33,4.43,2.13,5.66,4.21,3.85,6.55,5.73,18.49,8.95,25.76h-11.69c-1.16-4.25-2.23-8.63-3.64-12.8-2.61-7.74-3.38-15.01-13.9-13.5v26.31h-10.96V.87c7.06.6,15.39-.82,22.29,0ZM70.33,27.91c6.92.91,15.11-.72,15.38-9.16.33-10.17-7.66-9.44-15.38-9.11v18.27Z"/>
        <path class="cls-2" d="M228.01.35c33.99-3.68,35.79,55.1,9.7,62.3-37.24,10.28-41.91-58.81-9.7-62.3ZM230.21,8.33c-4.92.41-8.59,4.5-10.21,8.85-3.2,8.58-3.86,34.46,7.42,37.43,17.52,4.6,18-21.66,15.91-32.72-1.25-6.64-5.17-14.23-13.12-13.55Z"/>
        <path class="cls-2" d="M44.75,2.33v10.23C24.74,2.28,10.13,13.91,11.84,35.61c1.07,13.54,11.22,23.56,24.87,17.51v-16.44h-9.5s0-8.04,0-8.04h19.73v32.15c-21.65,7.45-44.86.17-46.79-25.19C-1.97,7.81,19.17-5.64,44.75,2.33Z"/>
        <path class="cls-2" d="M119.29.87v45.67c0,.95,2.61,5.76,3.67,6.56,3.35,2.54,10.27,2.49,13.16-.69.75-.82,2.9-6.51,2.9-7.33V.87h10.96v44.21c0,1.04-2.14,7.67-2.77,8.92-6.61,12.97-29.79,12.75-36.35-.49-.55-1.11-2.53-6.18-2.53-6.97V.87h10.96Z"/>
        <path class="cls-2" d="M591.36,62.98h-11.69l-4.36-15.01-20.78-.38-5.2,15.39h-10.6c2.82-6.93,18.26-61.77,21.53-62.17,1.89-.23,10.88-.25,11.73.77l19.35,61.4ZM573.09,38.87l-7.67-28.51-8.4,28.51h16.08Z"/>
        <path class="cls-2" d="M640.32,62.98l20.08-61.4,11.73-.77,20.8,62.16h-11.69l-4.49-15.24-21.17.33-4.3,14.91h-10.96ZM658.59,38.87h16.08l-7.68-27.77-8.4,27.77Z"/>
        <polygon class="cls-2" points="422.55 .87 422.55 9.64 401.36 9.64 401.36 26.45 421.09 26.45 421.09 35.22 401.36 35.22 401.36 53.48 423.28 53.48 423.28 62.98 389.67 62.98 389.67 .87 422.55 .87"/>
        <path class="cls-2" d="M183.23.87c14.24,1.68,19.74,17.02,13.67,29.01-1.65,3.26-7.85,8.25-11.48,8.25h-12.06v24.12h-10.96V.87c6.61.56,14.37-.76,20.83,0ZM173.36,9.64v20.46c9.51.83,15.57-1.59,14.65-12.1-.79-8.95-7.3-8.85-14.65-8.36Z"/>
        <path class="cls-2" d="M296.13,11.1c-5.81-1.91-17.82-5.16-20.13,2.9-3.1,10.82,16.69,13.41,21.48,21.69,3.08,5.33,2.67,13.34-.02,18.76-4.52,9.08-18.29,10.2-27.1,8.36-7.41-1.55-4.42-5.43-4.92-11.51,6.13,3.23,19.65,6.96,22.31-2.16,3.34-11.48-11.26-13.27-17.56-19.03-2.12-1.94-5.01-6.36-5.43-9.18-2.83-18.91,16.24-24.49,31.05-18.63l.32,8.81Z"/>
        <polygon class="cls-2" points="486.86 .87 486.86 9.64 472.97 9.64 472.97 62.98 462.38 62.98 461.28 61.89 461.28 9.64 447.4 9.64 447.4 .87 486.86 .87"/>
        <path class="cls-2" d="M719.24.87v45.67c0,.55-.97,5.21-1.23,6.08-2.99,10.19-13.46,13.4-22.79,9.53l-.09-9.4c.43-.46,6.77,2.62,10.24-1.08.37-.4,2.18-3.46,2.18-3.67V.87h11.69Z"/>
      </g>
      <g>
        <path class="cls-2" d="M505.13,253.71l6.47.1,4.5,16.7c1-.09,1.18-1.04,1.49-1.79,1.24-2.96,2.75-12.67,3.96-14.31,1.05-1.42,5.17-.46,6.96-.71v23.02l-4.38,1.1v-19l-6.29,19.04-3.13-.12-5.92-18.92v19h-3.65v-24.12Z"/>
        <polygon class="cls-2" points="432.05 253.71 437.8 253.81 445.21 271.25 445.21 253.71 449.59 253.71 449.59 277.83 444.1 277.1 436.44 260.29 436.44 277.83 432.05 277.83 432.05 253.71"/>
        <polygon class="cls-2" points="39.63 253.71 45.38 253.81 53.52 271.98 53.52 253.71 57.17 253.71 57.17 277.83 51.67 277.12 44.02 260.29 44.02 277.83 39.63 277.83 39.63 253.71"/>
        <path class="cls-2" d="M605.24,277.83v-24.12c11.69-.89,18.88.99,17.57,14.29-.95,9.62-9.65,10.38-17.57,9.83ZM609.63,274.17c11.89,1.84,12-18.95,0-16.81v16.81Z"/>
        <path class="cls-2" d="M646.89,277.83v-24.12c10.5-.8,18.14.54,17.57,12.82-.51,10.92-8.34,11.83-17.57,11.3ZM651.28,274.17c11.83,1.95,11.69-19,0-16.81v16.81Z"/>
        <path class="cls-2" d="M129.52,277.83v-24.12c9.52-.87,17.63.87,17.6,12.06-.03,10.74-8.46,12.93-17.6,12.06ZM133.9,274.17c11.09,2.11,11.24-19.18,0-16.81v16.81Z"/>
        <polygon class="cls-2" points="383.82 253.71 389.31 254.44 396.98 271.98 396.98 253.71 400.63 253.71 400.63 277.83 395.63 277.71 387.48 259.56 387.48 277.83 383.82 277.83 383.82 253.71"/>
        <polygon class="cls-2" points="187.25 253.71 192.25 253.83 200.4 271.98 200.4 253.71 204.05 253.71 204.05 277.83 199.05 277.71 190.9 259.56 190.9 277.83 187.25 277.83 187.25 253.71"/>
        <path class="cls-2" d="M88.96,253.71c5.33,1.15,5.6,10.3.37,12.05,3.01,3.29,3.82,7.94,5.11,12.06-8.96,2.3-3.44-11.86-11.69-10.23v10.23l-4.38-1.1v-23.02c3.11.45,7.74-.62,10.6,0ZM82.75,263.95c4.69.82,7.44-1.74,5.16-6.26l-5.16-.32v6.58Z"/>
        <path class="cls-2" d="M703.64,253.23c12.87-.37,13.85,26.3-1.59,24.61-10.79-1.18-10.82-24.26,1.59-24.61ZM701.19,273.95c7.72,5.86,10.85-15.97,2.9-17.19-6.6-1.02-6.74,14.28-2.9,17.19Z"/>
        <path class="cls-2" d="M490.99,253.23c12.81-.37,12.77,22.93,2.77,24.55-15.82,2.57-15.44-24.18-2.77-24.55ZM493.95,273.95c3.84-2.92,3.64-18.01-3.04-17.33-7.42.75-4.95,23.4,3.04,17.33Z"/>
        <path class="cls-2" d="M106.61,253.23c12.87-.37,13.85,26.3-1.59,24.61-10.79-1.18-10.82-24.26,1.59-24.61ZM104.16,273.95c7.96,6.05,10.58-16.57,3.04-17.33-6.68-.68-6.88,14.41-3.04,17.33Z"/>
        <path class="cls-2" d="M369.69,253.23c13.68-.39,13.45,28.5-2.7,24.25-9.35-2.46-9.31-23.9,2.7-24.25ZM372.65,257.59c-7.79-6.53-11.63,15.5-2.97,17.16,6.51-.63,6.55-14.16,2.97-17.16Z"/>
        <path class="cls-2" d="M307.09,277.1c-6.54,1.77-14.38,1.3-17.16-5.86-2.48-6.36-.73-14.72,6.21-17.15,3.83-1.35,11.73-1.97,10.22,4.01-14.69-7.37-18.17,18.55-2.92,16.08v-6.58s-3.66,0-3.66,0v-3.66s7.31,0,7.31,0v13.15Z"/>
        <path class="cls-2" d="M323.09,253.79l7.38,24.03-4.28-.1-1.64-5.67-8.25-.12-2.01,5.79-4.28.1,7.66-23.39,5.42-.64ZM323.17,268.32l-2.55-10.22c-1.15,1.02-3.68,9.85-3.29,10.22h5.84Z"/>
        <path class="cls-2" d="M636.56,253.81l7.41,24.01-4.31-.07-1.45-5.34-8.82-.4c-.19,4.49-.89,6.65-5.88,5.81l7.96-23.67,5.1-.33ZM636.67,268.32c.15-1.84-.53-3.53-.94-5.27-.3-1.25-.87-4.32-1.97-4.96l-2.93,10.22h5.84Z"/>
        <path class="cls-2" d="M757.16,253.79l7.38,24.03-4.42-.32-1.49-5.45-8.78.36-1.45,5.34-4.31.07,7.66-23.39,5.42-.64ZM757.24,268.32c-1.17-3.18-.96-8.02-3.64-10.23l-2.2,10.23h5.84Z"/>
        <polygon class="cls-2" points="242.05 253.71 241.97 256.18 240.85 257.26 233.28 257.36 233.28 263.22 241.33 263.21 241.34 266.44 233.6 267.55 233.28 274.18 242.06 274.17 242.05 277.83 228.9 277.83 228.9 253.71 242.05 253.71"/>
        <path class="cls-2" d="M578.93,253.71v3.66s-8.04,0-8.04,0v5.85s6.84.1,6.84.1c5.21,5.99-5.89,2.6-6.84,3.55v7.32s8.78,0,8.78,0v3.66h-13.16v-24.12h12.42Z"/>
        <path class="cls-2" d="M532.9,253.71c4.41.38,10.76-1.57,13.46,2.98,3.94,6.63-2.01,13.04-9.08,11.63v9.51s-4.38,0-4.38,0v-24.12ZM537.28,264.68c8.11,1.52,8.16-8.81,0-7.31v7.31Z"/>
        <polygon class="cls-2" points="212.02 253.78 216.84 271.99 221.67 253.79 225.98 253.72 218.2 277.72 214.2 277.39 206.99 254.07 212.02 253.78"/>
        <polygon class="cls-2" points="35.25 253.71 35.25 257.37 27.2 257.79 27.21 263.22 34.53 263.63 34.52 266.87 27.21 266.86 27.21 274.18 35.98 274.18 34.88 277.83 22.83 277.83 22.83 253.71 35.25 253.71"/>
        <polygon class="cls-2" points="163.86 253.71 163.87 257.37 155.82 257.36 155.81 262.79 163.14 263.21 163.14 266.87 155.82 266.86 155.82 274.18 163.87 274.17 163.86 277.83 151.44 277.83 151.44 253.71 163.86 253.71"/>
        <polygon class="cls-2" points="427.67 253.71 427.67 257.37 419.62 257.36 419.62 262.79 426.94 263.21 426.94 266.87 419.62 266.86 419.62 274.18 427.67 274.17 427.67 277.83 415.24 277.83 415.24 253.71 427.67 253.71"/>
        <path class="cls-2" d="M258.12,253.72v3.64c-.41.43-7.67-2.39-8.08,1.84s9.79,4.48,9.51,11.61c-.28,7.13-7.79,8.26-13.42,6.35l-.42-3.73,7.57.62.87-.58c2.4-7.83-8.51-5.35-8.51-13.57,0-7,7.22-7,12.48-6.2Z"/>
        <path class="cls-2" d="M338.01,259.05c-5.12,5.46-.14,19.17,9.28,14.71,3.32,5-4.8,4.44-8.1,3.74-9.71-2.06-10.25-19.63-1.36-23.36,2.87-1.2,11.41-1.92,10.15,2.84-.46,1.75-3.78-.17-5.72.13-1.21.19-3.44,1.07-4.26,1.95Z"/>
        <path class="cls-2" d="M18.44,253.71v4.38c-14.81-6.56-15.27,21.19,0,15.35l-.1,3.18c-.63,1.97-6.86,1.33-8.69.86-10.02-2.61-10.35-23.58,3.43-24.23,1.63-.08,3.57.82,5.37.46Z"/>
        <path class="cls-2" d="M732.4,253.71v4.39c-14.75-6.65-15.31,21.22,0,15.35l-.1,3.18c-.63,1.97-6.86,1.33-8.69.86-10.12-2.64-10.07-23.6,3.43-24.23,1.63-.08,3.57.82,5.37.46Z"/>
        <path class="cls-2" d="M478.82,258.09c-15.19-6.56-15.71,21.44,0,15.35l-.32,3.7c-18.44,6.94-21.97-24.18-4.55-23.88,3.73.06,5.56.74,4.87,4.83Z"/>
        <path class="cls-2" d="M689.27,253.72v3.64c-2.54-.25-5.24-1.68-7.36.51-3.68,5.5,12.47,5.83,8.27,16.11-1.81,4.44-7.88,4.37-11.91,3.52l-.68-4.06c2.86.98,9.2,1.85,8.8-2.52-.37-4.04-12.85-5.27-8.63-13.75,2.12-4.26,7.48-4.09,11.51-3.44Z"/>
        <path class="cls-2" d="M277.13,253.71v3.66s-5.12,0-5.12,0v19.37c0,1.49-5.12,1.49-5.12,0v-19.37h-5.12s0-3.65,0-3.65h15.35Z"/>
        <polygon class="cls-2" points="75.44 253.71 75.44 257.37 70.33 257.37 70.33 277.83 65.94 277.83 65.94 257.37 60.78 257.04 60.09 253.71 75.44 253.71"/>
        <polygon class="cls-2" points="555.55 253.71 555.55 274.17 563.59 274.17 563.59 277.83 551.17 277.83 551.17 253.71 555.55 253.71"/>
        <polygon class="cls-2" points="771.85 253.71 771.85 274.17 779.17 274.17 779.16 277.83 767.47 277.83 767.47 253.71 771.85 253.71"/>
        <path class="cls-2" d="M591.36,253.71v17.9c0,4.54-5.28,7.41-9.5,6.21v-4.39s3.2.69,3.2.69c.67-.23,1.92-2.78,1.92-3.25v-17.17h4.38Z"/>
        <rect class="cls-2" x="595.74" y="253.71" width="4.38" height="24.12"/>
        <rect class="cls-2" x="736.78" y="253.71" width="4.38" height="24.12"/>
        <rect class="cls-2" x="177.75" y="253.71" width="4.38" height="24.12"/>
        <rect class="cls-2" x="280.05" y="253.71" width="4.38" height="24.12"/>
        <rect class="cls-2" x="351.67" y="253.71" width="4.38" height="24.12"/>
        <path class="cls-2" d="M373.59,247.87c-.97,2.06-2.35,4.73-5.11,4.37-.08-3.53,1.67-4.96,5.11-4.37Z"/>
      </g>
    </g>
  </g>
</svg>