<?xml version="1.0" encoding="UTF-8" standalone="no"?><!DOCTYPE svg PUBLIC "-//W3C//DTD SVG 1.1//EN" "http://www.w3.org/Graphics/SVG/1.1/DTD/svg11.dtd"><svg width="100%" height="100%" viewBox="0 0 1884 355" version="1.1" xmlns="http://www.w3.org/2000/svg" xmlns:xlink="http://www.w3.org/1999/xlink" xml:space="preserve" xmlns:serif="http://www.serif.com/" style="fill-rule:evenodd;clip-rule:evenodd;stroke-linejoin:round;stroke-miterlimit:2;"><g><g><g><g><g><path d="M1229.613,281.371c-14.167,10.258 -34.683,17.583 -64.483,17.583c-59.104,0 -96.229,-44.942 -96.229,-123.588c0,-79.621 37.125,-123.588 96.229,-123.588c21.983,0 39.079,4.888 64.483,18.562l3.417,-56.175c-25.4,-9.771 -51.779,-14.167 -75.713,-14.167c-96.233,0 -154.854,69.367 -154.854,175.367c0,106.004 58.621,175.367 157.296,175.367c24.912,0 59.596,-4.883 73.271,-12.212l-3.417,-57.15Z" style="fill-rule:nonzero;"/></g><g><rect x="1288.225" y="4.883" width="62.525" height="340.967"/></g><g><path d="M1637.008,281.371c-14.167,10.258 -34.683,17.583 -64.479,17.583c-59.108,0 -96.233,-44.942 -96.233,-123.588c0,-79.621 37.125,-123.588 96.233,-123.588c21.979,0 39.079,4.888 64.479,18.562l3.421,-56.175c-25.404,-9.771 -51.779,-14.167 -75.717,-14.167c-96.233,0 -154.85,69.367 -154.85,175.367c0,106.004 58.617,175.367 157.292,175.367c24.912,0 59.596,-4.883 73.275,-12.212l-3.421,-57.15Z" style="fill-rule:nonzero;"/></g><g><path d="M1687.317,335.592c17.1,10.258 43.475,15.142 77.183,15.142c70.829,0 114.796,-38.1 114.796,-100.625c0,-40.546 -9.283,-63.504 -50.317,-88.417c-49.825,-30.287 -81.575,-37.617 -81.575,-71.808c0,-24.913 17.583,-40.058 47.383,-40.058c21.004,0 36.146,3.421 63.992,14.654l2.929,-52.267c-27.354,-9.283 -50.804,-12.213 -70.829,-12.213c-60.575,0 -107.958,35.171 -107.958,92.812c0,42.012 21.004,69.367 52.271,87.442c56.175,31.75 79.621,40.054 79.621,70.829c0,30.775 -20.025,49.825 -52.267,49.825c-23.938,0 -48.85,-6.838 -71.808,-21.004l-3.421,55.688Z" style="fill-rule:nonzero;"/></g></g><g><path d="M68.008,344.904l0,-128.729l29.633,0c82.096,0 129.704,-36.921 129.704,-107.846c0,-68.979 -50.033,-102.5 -139.904,-102.5l-87.442,0l0,339.075l68.008,0Zm-0,-182.167l0,-103.471l23.804,0c40.321,0 64.608,17.488 64.608,52.95c0,31.575 -19.429,50.521 -65.579,50.521l-22.833,0Z" style="fill:#008dd2;fill-rule:nonzero;"/><path d="M425.546,350.733c101.042,0 166.137,-67.037 166.137,-176.337c0,-109.788 -66.554,-174.396 -166.137,-174.396c-104.442,0 -166.137,67.037 -166.137,174.396c0,108.329 61.208,176.337 166.137,176.337Zm0,-53.433c-62.179,0 -95.212,-51.008 -95.212,-122.904c0,-67.525 33.517,-120.958 94.725,-120.958c66.554,0 95.7,58.779 95.7,120.958c0,71.408 -32.546,122.904 -95.213,122.904Z" style="fill:#008dd2;fill-rule:nonzero;"/><path d="M853.521,344.904l0,-53.433l-131.65,0l0,-285.642l-68.008,0l0,339.075l199.658,0Z" style="fill:#008dd2;fill-rule:nonzero;"/><rect x="890.925" y="5.829" width="68.008" height="339.075" style="fill:#008dd2;"/></g></g></g></g></svg>