<?xml version="1.0" encoding="UTF-8" standalone="no"?><!DOCTYPE svg PUBLIC "-//W3C//DTD SVG 1.1//EN" "http://www.w3.org/Graphics/SVG/1.1/DTD/svg11.dtd"><svg width="100%" height="100%" viewBox="0 0 452 85" version="1.1" xmlns="http://www.w3.org/2000/svg" xmlns:xlink="http://www.w3.org/1999/xlink" xml:space="preserve" xmlns:serif="http://www.serif.com/" style="fill-rule:evenodd;clip-rule:evenodd;stroke-linejoin:round;stroke-miterlimit:2;"><g><g><g><g><g><path d="M295.107,67.529c-3.4,2.462 -8.324,4.22 -15.476,4.22c-14.185,0 -23.095,-10.786 -23.095,-29.661c-0,-19.109 8.91,-29.661 23.095,-29.661c5.276,0 9.379,1.173 15.476,4.455l0.82,-13.482c-6.096,-2.345 -12.427,-3.4 -18.171,-3.4c-23.096,-0 -37.165,16.648 -37.165,42.088c0,25.441 14.069,42.088 37.751,42.088c5.979,0 14.303,-1.172 17.585,-2.931l-0.82,-13.716Z" style="fill-rule:nonzero;"/></g><g><rect x="309.174" y="1.172" width="15.006" height="81.832"/></g><g><path d="M392.882,67.529c-3.4,2.462 -8.324,4.22 -15.475,4.22c-14.186,0 -23.096,-10.786 -23.096,-29.661c-0,-19.109 8.91,-29.661 23.096,-29.661c5.275,0 9.379,1.173 15.475,4.455l0.821,-13.482c-6.097,-2.345 -12.427,-3.4 -18.172,-3.4c-23.096,-0 -37.164,16.648 -37.164,42.088c-0,25.441 14.068,42.088 37.75,42.088c5.979,0 14.303,-1.172 17.586,-2.931l-0.821,-13.716Z" style="fill-rule:nonzero;"/></g><g><path d="M404.956,80.542c4.104,2.462 10.434,3.634 18.524,3.634c16.999,0 27.551,-9.144 27.551,-24.15c-0,-9.731 -2.228,-15.241 -12.076,-21.22c-11.958,-7.269 -19.578,-9.028 -19.578,-17.234c-0,-5.979 4.22,-9.614 11.372,-9.614c5.041,0 8.675,0.821 15.358,3.517l0.703,-12.544c-6.565,-2.228 -12.193,-2.931 -16.999,-2.931c-14.538,-0 -25.91,8.441 -25.91,22.275c0,10.083 5.041,16.648 12.545,20.986c13.482,7.62 19.109,9.613 19.109,16.999c0,7.386 -4.806,11.958 -12.544,11.958c-5.745,0 -11.724,-1.641 -17.234,-5.041l-0.821,13.365Z" style="fill-rule:nonzero;"/></g></g><g><path d="M16.322,82.777l0,-30.895l7.112,-0c19.703,-0 31.129,-8.861 31.129,-25.883c0,-16.555 -12.008,-24.6 -33.577,-24.6l-20.986,0l0,81.378l16.322,0Zm0,-43.72l0,-24.833l5.713,-0c9.677,-0 15.506,4.197 15.506,12.708c0,7.578 -4.663,12.125 -15.739,12.125l-5.48,-0Z" style="fill:#105d9a;fill-rule:nonzero;"/><path d="M102.131,84.176c24.25,0 39.873,-16.089 39.873,-42.321c-0,-26.349 -15.973,-41.855 -39.873,-41.855c-25.066,0 -39.873,16.089 -39.873,41.855c-0,25.999 14.69,42.321 39.873,42.321Zm-0,-12.824c-14.923,-0 -22.851,-12.242 -22.851,-29.497c-0,-16.206 8.044,-29.03 22.734,-29.03c15.973,-0 22.968,14.107 22.968,29.03c0,17.138 -7.811,29.497 -22.851,29.497Z" style="fill:#105d9a;fill-rule:nonzero;"/><path d="M204.845,82.777l-0,-12.824l-31.596,-0l0,-68.554l-16.322,0l0,81.378l47.918,0Z" style="fill:#105d9a;fill-rule:nonzero;"/><rect x="213.822" y="1.399" width="16.322" height="81.378" style="fill:#105d9a;fill-rule:nonzero;"/></g></g></g></g></svg>